<?xml version="1.0" ?><!DOCTYPE svg  PUBLIC '-//W3C//DTD SVG 1.1//EN'  'http://www.w3.org/Graphics/SVG/1.1/DTD/svg11.dtd'><svg enable-background="new 0 0 128 128" height="128px" version="1.1" viewBox="0 0 128 128" width="128px" xml:space="preserve" xmlns="http://www.w3.org/2000/svg" xmlns:xlink="http://www.w3.org/1999/xlink"><g id="bg_1_"><path d="M-494.333,0L-534,0.022c0,0-15.333,1.963-16.667,13.97S-551.992,61-551.992,61L-552,103l0.008,13   c0,0-1.341,12.065,19.326,12.036s69,0,69,0l17-0.036h8c0,0,12.667-4,14.667-19.333s-1.341-36-1.333-46S-425,13.993-425,13.993   s0.334-13.948-10.333-13.97S-494.333,0-494.333,0z" fill="#6D6E71"/><path d="M-395.667,0.667c0,0-10.167,0.833-13,3.5s-5.325,11.667-5.325,15s2.326,45.806,2.326,45.806l-2.326,42.611   l-0.008,9c0,0-0.625,11.084,11,11.417s38.5,0.369,38.5,0.369l54.25-0.369c0,0,13.25,1.333,17.5-1.417s6.742-17.666,6.75-27.916   s0-41.334,0-41.334l-0.007-36.666c0,0-3.493-21.167-15.243-20S-395.667,0.667-395.667,0.667z" fill="#6D6E71"/><path d="M-214.25,0.5H-249l-12.75,0.105c0,0-6.75,1.145-9.25,3.895s-4.992,8.5-4.992,14.75s0,48,0,48v42.25   c0,0-0.008,9.5,2.242,13.25s4.708,3.619,25.083,3.25s75.167,2,75.167,2h11.5c0,0,11.5-4.25,12.75-7.75s1.25-19.813,1.25-19.813   V49.75V11.5c0,0,0.25-8.5-11.5-11.5s-36.75,0.605-36.75,0.605L-214.25,0.5" fill="#6D6E71"/><path d="M-114,0c0,0-14.175,1.167-18.667,7.667S-138,19-138,22.5s0.008,49.5,0.008,49.5s-0.016,36.25-0.008,40.5   s0,10.5,5,13s15,3.213,26,2.979s53.416-1.912,60.666-2.146s22.75,1.166,27-0.334S-10,121.75-10,114.5s0-64.25,0-64.25V17   c0,0,2.498-10.21-8.333-13.667C-27.691,0.347-28.75,0.74-54.25,0.495S-114,0-114,0z" fill="#6D6E71"/><path d="M13.668,0c0,0-9.008,0.333-11.334,7S0,21,0,23s0.008,75.667,0.008,75.667L0,113   c0,0,0.002,15.525,13.668,15.246s40.666-0.279,40.666-0.279L95.668,128l17-0.033c0,0,13.664,1.7,15.332-9.967s0-94,0-94   l0.741-13.333c0,0-3.608-10.917-15.073-10.917s-66.667,0-66.667,0L13.668,0" fill="#6D6E71"/><path d="M-532.914,139.18c0,0-10.167,0.834-13,3.5c-2.833,2.667-5.325,11.668-5.325,15c0,3.334,0,45.186,0,45.186   l-0.014,39.635l0.006,12.597c0,0-0.625,11.084,11,11.417s38.5,0.369,38.5,0.369l54.25-0.369c0,0,13.497-0.514,17.747-3.264   s6.487-7.153,6.495-17.403s0.008-50,0.008-50l-1.503-43.333c0,0-2.149-15.553-13.747-13.334   C-450.625,141.5-532.914,139.18-532.914,139.18z" fill="#6D6E71"/><path d="M-285.735,161.096c0,0,1.75-15.008-4.75-19.5s-14.25-4.5-17.75-4.5s-49.5,0.008-49.5,0.008   s-36.25-0.016-40.5-0.008s-10.5,0-13,5s-3.213,15-2.979,26s-0.233,54.75,0,62s-1.021,22.75,0.479,27s6.25,8,13.5,8s64.25,0,64.25,0   h33.25c0,0,12.068,3.939,15.525-6.892c2.986-9.358,0.734-11.858,0.979-37.358S-285.735,161.096-285.735,161.096z" fill="#6D6E71"/><path d="M-147.982,195.229l-0.022-39.666c0,0-1.963-15.333-13.97-16.666c-12.008-1.334-47.008-1.326-47.008-1.326   l-42-0.008l-13,0.008c0,0-12.065-1.341-12.036,19.326c0.029,20.666,2.019,65.511,2.019,65.511l-1.982,20.488v8   c0,0,4,12.667,19.333,14.667s34.667-0.016,44.667-0.008s47.666,0.893,47.666,0.893s16.289-1.551,16.312-12.218   S-147.982,195.229-147.982,195.229z" fill="#6D6E71"/><path d="M-137.157,252.674c0,0,0.334,9.008,7,11.334s14,2.334,16,2.334s72.397-2.341,72.397-2.341l18.093,0.333   c0,0,15.035,2.006,14.756-11.66s-0.279-40.666-0.279-40.666l0.033-41.334L-10,158.001c0,0,2.51-17.991-9.157-19.659s-94,0-94,0   l-13.334-0.741c0,0-10.916,3.608-10.916,15.073s0,66.667,0,66.667L-137.157,252.674" fill="#6D6E71"/><path d="M-0.434,242.792c0,0-1.75,15.008,4.75,19.5s14.25,4.5,17.75,4.5s49.5-0.008,49.5-0.008   s36.25,0.016,40.5,0.008s10.5,0,13-5s3.213-15,2.979-26s0.233-54.75,0-62s1.021-22.75-0.479-27s-6.25-8-13.5-8s-64.25,0-64.25,0   h-33.25c0,0-12.068-3.939-15.525,6.892c-1.972,6.179,0.901,8.554,0.625,37.317C1.421,208.501-0.434,242.792-0.434,242.792z" fill="#6D6E71"/><path d="M-550.25,348.75l-1.746,38.688c0,0,1.963,15.333,13.97,16.666c12.008,1.334,47.008,1.326,47.008,1.326   l42,0.008l13-0.008c0,0,12.065,1.341,12.036-19.326c-0.029-20.666,0-68.999,0-68.999V302.55l-0.036-10.445   c0,0-4-12.667-19.333-14.667s-34.667,0.016-44.667,0.008s-47.666-0.893-47.666-0.893s-16.289,1.551-16.312,12.218   S-550.25,348.75-550.25,348.75z" fill="#6D6E71"/><path d="M-401.706,276.25c0,0-9.008,0.334-11.334,7s-2.334,14-2.334,16s0.008,75.667,0.008,75.667l-0.008,14.333   c0,0,0.002,15.525,13.668,15.246s40.666-0.279,40.666-0.279l41.334,0.033l17-0.033c0,0,13.664,1.7,15.332-9.967s0-94,0-94   l0.741-13.334c0,0-3.608-10.916-15.073-10.916s-66.667,0-66.667,0L-401.706,276.25" fill="#6D6E71"/><path d="M-147.881,295.836c0,0-0.834-10.167-3.5-13c-2.667-2.833-11.668-5.325-15-5.325c-3.334,0-45.186,0-45.186,0   l-39.644,2.021l-12.588-2.028c0,0-11.084-0.625-11.417,11s-0.369,38.5-0.369,38.5l0.369,54.25c0,0-1.333,13.25,1.417,17.5   s9,6.734,19.25,6.742s50,0.008,50,0.008l42-0.008c0,0,15.833-3.492,14.667-15.242   C-149.048,378.503-147.881,295.836-147.881,295.836z" fill="#6D6E71"/><path d="M-136.264,342.866v34.75l0.105,12.75c0,0,1.145,6.75,3.895,9.25s8.5,4.992,14.75,4.992s48,0,48,0h42.25   c0,0,9.5,0.008,13.25-2.242s4.383-4.824,4.014-25.199s0-74.005,0-74.005s0-8.834,0-12.834s-3.667-9.583-7.167-10.833   s-19.16-2.879-19.16-2.879h-50.687h-38.25c0,0-8.5-0.25-11.5,11.5s0.605,36.75,0.605,36.75L-136.264,342.866" fill="#6D6E71"/><path d="M103.812,404.766c0,0,15.008,1.75,19.5-4.75S126,383.75,126,380.25s1.804-47.484,1.804-47.484   s0.016-36.25,0.008-40.5s0-10.5-5-13s-15-3.213-26-2.979c-11,0.232-54.795,1.979-62.045,2.213c-7.25,0.232-23.017-1.25-27.267,0.25   s-5.5,3.75-5.5,11s-2.188,64.766-2.188,64.766v33.25c0,0-3.939,12.068,6.892,15.525c9.358,2.986,11.858,0.734,37.358,0.98   C69.562,404.516,103.812,404.766,103.812,404.766z" fill="#6D6E71"/></g><g id="icons"><path d="M-451.441,18.453c0,0-0.297-4.439-8.016-4.446c-7.719-0.007-18.704-0.297-22.563,2.223   c-3.86,2.52-11.579,9.645-11.579,24.192c0,14.548,0,14.548,0,14.548s0.89,2.375-2.375,2.672s-6.531,0-6.531,0   s-4.157-0.148-4.008,6.68c0.148,6.829-0.004,11.875-0.004,11.875s-1.035,2.672,3.418,3.117c4.454,0.445,4.454,0.445,4.454,0.445   s5.493-2.821,4.75,8.461c-0.743,11.282,0.148,17.962,0.148,17.962v17.517c0,0-0.297,4.298,6.383,4.298c6.68,0,12.617,0,12.617,0   s4.453,0.896,4.157-5.931c-0.297-6.828-0.297-35.479-0.297-35.479V80.65c0,0,0.147-3.415,2.523-3.712   c2.375-0.296,10.391,0,10.391,0s1.485,0.892,2.673-5.937c1.187-6.829,1.187-8.907,1.187-8.907s2.228-3.563-1.929-3.563   c-4.157,0-10.837-0.297-10.837-0.297s-4.008,0.296-4.008-5.344c0-5.64,0.297-12.766,0.297-12.766s0.446-5.196,5.938-5.196   c5.492,0,10.539,0.148,10.539,0.148s2.672-0.296,2.672-6.086C-451.441,23.203-451.441,18.453-451.441,18.453z" fill="#FFFFFF"/><g><path d="M-370,30.75c-1-2.75-8.5-5.75-13-2.25s-4.25,9.75-3.5,10.75s4.322,6,8.036,5s8.908-1.124,8.908-6.25    S-369,33.5-370,30.75z" fill="#FFFFFF"/><path d="M-382.5,52c0,0-3.25-1-3.25,4s-0.25,37,0,38.5s0,4.75,3.25,5.5s7,0,7,0s4-1,4.25-7s0-37.25,0-37.25    s0-3.413-2.25-3.832S-382.5,52-382.5,52z" fill="#FFFFFF"/><path d="M-356.5,51.751c0,0-4.75,0.499-4.75,3.749s0,41,0,41s0.5,3.666,4.75,3.833s6.5,0,6.5,0    s3.75,1.417,3.75-6.333s0-22.985,0-22.985s1.75-6.765,8-7.015s6.25,1.5,8,2.5s1.5,9.25,1.5,12.5s0.013,17.25,0.013,17.25    s1.487,4.166,5.737,4.083s5.5,0.102,5.5,0.102s4.25,0.315,4-8.185s-0.5-25.75-1-28.25s-1.75-7.75-4.75-9.5s-4-2.999-8-2.749    S-356.5,51.751-356.5,51.751z" fill="#FFFFFF"/></g><g><path d="M-238.75,28c0,0-16,1-19.5,8.25s-3,19.75-3,24.75s-0.024,30-0.024,30s1.499,10,11.262,10.25    s27.013,0,27.013,0l26.5,1.25h18c0,0,13-0.5,15-11.5s1-30,1.25-32.75S-162.215,42-162.215,42s1.965-12.75-15.285-14    S-238.75,28-238.75,28z" fill="#FFFFFF"/><path d="M-220.5,47.75L-196,64c0,0,0.75,2.5-1.75,3.5S-220.5,81-220.5,81s-3.25,1.25-3.5-3.75    S-226.51,43.764-220.5,47.75z" fill="#6D6E71"/></g><path d="M-21,31.5l-11.375,2.75c0,0,7.875-5.125,8.375-11.875c0,0.5-13.568,5.557-13.568,5.557   S-44.25,20.5-55.5,21.5s-16.479,9.654-17.656,12.583c-2.511,6.25-1.511,13.083-1.511,13.083s-2,1-5.833,0.204   c-5.313-1.104-12.667-3.037-20.75-7.287c-3.074-1.616-7.233-4.191-11.75-8.083c-3.316-2.858-7.25-10.592-8.167-2.833   c-0.736,6.227-1.666,11,2.084,18.167c0.868,1.659,5.219,4.94,5.317,5.637s-0.787,0.73-2.787,0.73s-5.697-4.951-5.697,0.049   s4.5,11.833,7.5,14.417s11.095,4.326,8.75,4.584c-3.495,0.384-10.958-1.232-8.5,2.667c2.416,3.833,8.231,9.834,13.833,11.333   c5.916,1.583,5.75,1.417,2.917,3.25c-2.527,1.636-4.25,3.583-11.667,5.833C-113.962,97.212-120.875,97-120.875,97   s-9.375,0.125-0.875,3.5c6.139,2.438,19.625,7.75,39.75,5.5c15.992-1.788,25.968-10.284,31.75-15.75   c9.125-8.625,12-12.5,15.375-25.125c1.968-7.363,2.841-21.386,2.841-22.636S-25.25,41-21,31.5z" fill="#FFFFFF"/><g><path d="M13,39.333v6h100.333h1.334v-18c0,0-0.668-11.167-14.834-13.833s-15.166,0.333-24.166,0    s-35.334-1.114-35.334-1.114S23.833,8.5,16.5,19.667c-2.662,4.284-3.5,8.866-3.5,8.866V39.333z" fill="#FFFFFF"/><path d="M19.667,9.5v32H37c0,0,3.666-2.5,3.333-5.667s0.021-28.167,0.021-28.167L19.667,9.5z" fill="#6D6E71"/><path d="M93.167,19.667c0,0-5.501-0.5-5.834,4.917s0,10.917,0,10.917S87.5,39,92,39.167s10.667,0,10.667,0    s2.666,0.333,3.333-4.833S106,23,106,23s0.166-3.357-3.667-3.345S93.167,19.667,93.167,19.667z" fill="#6D6E71"/><path d="M41.5,48.5H20.666h-3.833c0,0-3.834-0.167-4.167,5.333s0,42.333,0,42.333s-0.666,8.666,5.667,13    s11.166,5.333,14.833,5.5s35.334,0,35.334,0l24,0.074c0,0,8.926,1.259,13.796-2.074s7.87-6,8.037-13s0-35.69,0-35.69l0.074-11.809    v-3.667L41.5,48.5z" fill="#FFFFFF"/><path d="M46,43.5c0,0,17-11.833,31.5-2s12.834,21,12.5,24.667    s-6.5,20.333-19,22.5S51.166,88.834,45.166,82S37,70.5,37.5,59.667S46,43.5,46,43.5z" fill="#6D6E71" stroke="#FFFFFF" stroke-miterlimit="10"/><path d="M58.666,41.5c-5.5,0.333-11.499,5.167-14.166,10.5s-4.834,11-2.334,17.833S47.5,81.667,55.833,85    S76.5,83.666,79.5,80.666s9.166-13.332,6.333-22.5C83,49,80.166,45.5,74.333,43S64.166,41.166,58.666,41.5z" fill="#FFFFFF"/><path d="M63,47c0,0-7.5,0-11.167,4.167s-5.167,9.667-4.5,14.667s4.667,11.833,11,14s14.001-0.5,16.667-3.5    s6.834-8.667,6-15.167c-0.834-6.5-4.167-9-7.167-11.667S63,47,63,47z" fill="#6D6E71"/></g><g><path d="M-459.75,179.25c0,0,0.5-3.75,3.5-3.75s3.25,1.75,3.5,3.75s0,9.25,0,9.25s-0.027,18.25,0.111,19.25    S-452.75,214-455,214s-4.75-1.25-4.75-3.5s0.25-21.75,0.25-21.75L-459.75,179.25z" fill="#FFFFFF"/><path d="M-469.625,191c0,0-6.375-0.125-6.375,1.625s0,3.375,0,3.375s-0.5,2.25,4.5,2.25s23.75,0,23.75,0    s10.227,0.244,10.75-2c0.875-3.75-0.25-5-5.5-5S-469.625,191-469.625,191z" fill="#FFFFFF"/><path d="M-486.25,151.625h7.625c0,0,4.625-0.125,1.375,2s-5.75,2.75-7.375,2.75s-2.875,0-2.875,0    s-2.375-0.75,0,1.75s8,9.375,7,18.125s-5.25,11.375-7.5,13.625s-4.75,4.875-4.75,4.875s-4.875,5.375,1.625,10.375    s12.875,11.75,14.125,18s0.125,14-5.375,19.25s-14.375,11-23.5,11s-24.375,0-29.875-10.25c-3.501-6.524-2.117-16.102,3.008-21.102    s10.867-9.023,21.367-9.648s8.75-1,8.75-1s-3.297-2.625-3.297-7.5c0-2.574,2.322-7-0.94-6.5S-523,198.25-528.625,186.5    s-1.125-18.25,1.875-22.625s8.15-12.002,19.888-12.251s19.362,0,19.362,0L-486.25,151.625z" fill="#FFFFFF"/><path d="M-503.375,156.75c0,0-4.625-2-9,0s-7.75,6.375-7.75,13s3,15.625,6.5,19s10.25,5.75,15.5,3.125    s6-5.75,6.375-10.875s-2.75-13.125-4.75-17.375S-503.375,156.75-503.375,156.75z" fill="#6D6E71"/><path d="M-496.125,218c-2.327-0.749-6-2.374-12.875-2c-7.62,0.414-10.975,2.55-15.125,6.25    c-3.266,2.911-4.5,8.5-2.25,12.875c3.272,6.363,5.625,8.5,11.875,10.375s14.625,2.625,20.25,0s9.875-6.125,9.625-13.5    s-4.356-9.102-7.094-11.25C-493.295,219.514-495.676,218.145-496.125,218z" fill="#6D6E71"/></g><g><path d="M-339.167,158.417c-9.167-1.334-17.667,0.333-17.667,0.333s-0.583-0.5-3.583-2s-15.583-4.417-24.833,1.375    c-6.072,3.802-11.25,7.375-12.75,17.375s1.25,12.756,2.5,19.128s-2.813,18.685,4.938,31.185s16.762,17.637,23.229,20.188    s17.906,4.024,22.406,4.024s13.364,2.478,17.427,2.476c5.267-0.003,12.5-0.602,17.25-5.301s9.625-11.074,9.625-18.324    s-1.041-9.208-2.874-14.208c0.221-5.252,2.749-15.917-3.001-29.667S-330,159.751-339.167,158.417z" fill="#FFFFFF"/><path d="M-339.5,187c1.334,2.751,7,7.496,11.75,3.998s0.25-10.248-3-12.748s-10.25-8.5-23.75-6.25    s-18.25,7.25-19.75,11.75s-2,12.25,3.75,16s13.5,7,22,8.75s12.25,5.891,12.25,7.445s0,5.555-4.75,7.305s-10.25,3.5-14.25,1.75    s-6.5-5.609-8-9.055s-6-4.195-10.25-1.945s-2.566,8.697-1.738,10.25c1.155,2.166,8.238,10,15.988,11.25s20,1.395,27.25-3.928    s6.5-9.627,6.75-15.627S-327.5,202-335,199.5s-11.5-2.75-18.5-4.75s-8.75-6.5-6.5-9.75s5.002-3.646,10-3.5    c2.822,0.082,4.528,0.606,6.696,1.655C-341.919,183.825-339.5,187-339.5,187z" fill="#6D6E71"/></g><g><path d="M-210.258,221.668H-175c0,0,8.666,0.334,10.333-7s-0.998-12.334-3.832-14.501s-11.667-1.5-11.667-1.5    s0-6.668-4.5-11.334s-10.166-7.499-15.333-7.666s-10.259,1.666-10.259,1.666" fill="#FFFFFF"/><path d="M-211.954,221.146c0,0,0.396-34.709,0-37.833c-0.396-3.125-1.72-0.657-1.72,1.316    s-0.529,29.112-0.529,29.112v5.592C-214.203,219.334-214.071,224.11-211.954,221.146z" fill="#FFFFFF"/><path d="M-220.134,221.374c0,0,0.424-29.349,0-31.989c-0.424-2.643-1.841-0.557-1.841,1.112    s-0.566,24.617-0.566,24.617v4.728C-222.541,219.842-222.4,223.881-220.134,221.374z" fill="#FFFFFF"/><path d="M-238.356,190.749c0,0-0.382,27.643,0,30.132c0.381,2.488,1.653,0.523,1.653-1.049    c0-1.573,0.509-23.187,0.509-23.187v-4.452C-236.194,192.193-236.32,188.39-238.356,190.749z" fill="#FFFFFF"/><path d="M-250.037,199.842c0,0-0.289,19.658,0,21.43c0.289,1.77,1.254,0.371,1.254-0.746s0.387-16.49,0.387-16.49    v-3.166C-248.396,200.869-248.493,198.164-250.037,199.842z" fill="#FFFFFF"/><path d="M-256.408,218.881c0,0,0.295-16.083,0-17.53s-1.279-0.305-1.279,0.61c0,0.914-0.395,13.489-0.395,13.489    v2.591C-258.082,218.041-257.984,220.254-256.408,218.881z" fill="#FFFFFF"/><path d="M-216.509,185.5c0,0-1.607-2.246-1.823,2.627c-0.215,4.873,0,19.706,0,19.706l-0.096,10.5    c0,0-0.428,3.131,0.961,3.732c1.388,0.602,0.958-3.566,0.958-4.732s0.121-16.086,0.31-21.167S-215.973,188.333-216.509,185.5z" fill="#FFFFFF"/><path d="M-224.176,188.949c0,0-1.607-2.039-1.823,2.383c-0.215,4.422,0,17.881,0,17.881l-0.096,9.526    c0,0-0.428,2.841,0.961,3.387c1.388,0.546,0.958-3.236,0.958-4.294s0.121-14.596,0.31-19.205    C-223.678,194.016-223.64,191.52-224.176,188.949z" fill="#FFFFFF"/><path d="M-228.3,221.266c0,0,0.424-29.716,0-32.39c-0.424-2.676-1.841-0.563-1.841,1.126    c0,1.69-0.566,24.925-0.566,24.925v4.787C-230.707,219.714-230.566,223.804-228.3,221.266z" fill="#FFFFFF"/><path d="M-234.137,221.727c0,0,1.607,2.055,1.823-2.4c0.215-4.455,0-18.016,0-18.016l0.096-9.599    c0,0,0.428-2.862-0.961-3.413c-1.388-0.55-0.958,3.262-0.958,4.327s-0.121,14.706-0.31,19.351    C-234.635,216.622-234.673,219.138-234.137,221.727z" fill="#FFFFFF"/><path d="M-240.522,221.71c0,0,0.362-24.957,0-27.202c-0.362-2.247-1.573-0.474-1.573,0.946    c0,1.419-0.483,20.932-0.483,20.932v4.021C-242.579,220.406-242.459,223.842-240.522,221.71z" fill="#FFFFFF"/><path d="M-244.692,221.537c0,0,0.286-18.893,0-20.593c-0.285-1.701-1.24-0.358-1.24,0.716    s-0.381,15.847-0.381,15.847v3.044C-246.313,220.551-246.219,223.151-244.692,221.537z" fill="#FFFFFF"/><path d="M-252.525,221.141c0,0,0.286-18.893,0-20.593c-0.285-1.701-1.24-0.358-1.24,0.716    s-0.381,15.847-0.381,15.847v3.044C-254.146,220.154-254.052,222.755-252.525,221.141z" fill="#FFFFFF"/><path d="M-259.902,216.692c0,0,0.286-10.515,0-11.462c-0.285-0.946-1.24-0.199-1.24,0.399    c0,0.598-0.381,8.819-0.381,8.819v1.694C-261.523,216.144-261.429,217.59-259.902,216.692z" fill="#FFFFFF"/></g><path d="M-95.75,253.5c0,0-1.75-14,0-21.5s5-20.25,6-25s1.75-9.25,1.75-9.25s-3-5-1.75-11.25s3.197-10.28,7.75-11   c5.006-0.791,8.844,0.167,11,4.156c1.862,3.445-1.063,15.344-2.156,18.094s-3.594,9.75-0.844,13s10,5.75,15.25,2   s10.25-15.75,10.5-23.5S-49.5,172.5-55.5,168s-14.5-6.334-23-5.25c-8.123,1.036-14.555,7.5-18.027,12.5s-5.223,13.25-4.223,18   s2.941,7.632,3.5,8.75c1.083,2.167-0.5,8.5-0.5,8.5s-1.75,0.75-4.75-0.25s-10.75-8.25-10-24.25s15-26.5,21.75-29.75   s16.083-5.417,28.5-3.5c8.926,1.378,21.5,9,25.5,20.5s2.5,25-0.75,31.75s-5.817,11.257-10.5,15.25c-4.679,3.99-12,5.5-17.75,5.25   s-14-7-14-7s-2.5,12.5-3.75,16.75S-89.75,251.5-95.75,253.5z" fill="#FFFFFF"/><path d="M59.25,152.03c-0.999,0.056-4.25-0.78-5.75,4.97s-3.789,10.584-6.667,14.169   C44.267,174.366,35.75,178,35.75,178s-3.75,1.5-3.5,6s-0.012,5.75-0.012,5.75s-0.238,4.25,5.012,4s7.25,0.011,7.25,0.011   s2.75,0.433,2.75,8.211S47,233,47,233s-1.208,8.189,7.75,14.5c7.75,5.46,19,5.674,22.25,5.174s14.883-2.691,14.883-2.691   s4.617-0.482,4.867-6.732s0-7.5,0-7.5s0.489-3.021-5.75-1.25c-7.812,2.217-10.25,2.5-14.75,1.25s-7.5-4.25-7.5-11   s-0.221-26.075-0.221-26.075s0.179-5.8,4.096-5.8C76.883,192.875,89.5,193,89.5,193s2.625-0.813,2.625-6.063   s0.071-8.267,0.071-8.267s-0.009-3.733-2.509-3.733S71.5,175,71.5,175s-2.25-0.125-2.5-7.875s0-12.938,0-12.938   s-0.901-1.976-3.5-2.193C63.375,151.816,62.496,151.85,59.25,152.03z" fill="#FFFFFF"/><g><path d="M-532.74,385.241l24.49-7.991c0,0,7.5,4.25,16.75,5.25s19.625,1.5,32.125-8.75s14.635-19.5,15.875-28.75    s0.5-19-6.25-29.75s-16-15.011-22.75-17.75s-17.25-3.75-25.5-1.5s-18.625,8.25-23.375,13.75S-529.75,326-530.5,332    s-0.25,13.5,1.25,18s4.75,11,4.75,11L-532.74,385.241z" fill="#FFFFFF"/><path d="M-520.324,373.447l13.434-3.947c0,0,8.632,5.38,16.346,6.213c7.714,0.836,16.679,0.21,27.101-8.338    c10.426-8.548,11.892-15.218,12.927-22.934c1.035-7.712-1.021-13.811-6.649-22.774c-5.629-8.964-11.904-14.552-17.534-16.836    c-5.627-2.283-14.384-3.127-21.264-1.251c-6.88,1.878-14.802,7.715-18.763,12.301s-7.022,13.862-7.647,18.869    c-0.625,5.003-0.9,10.109,0.351,13.861c1.251,3.753,5.935,11.547,5.935,11.547L-520.324,373.447z" fill="#6D6E71"/><path d="M-495.625,332.625l1.5-1.875c0,0,1.25-1.875,0-4s-2.375-6.625-2.375-6.625s-0.875-2.875-3.375-3    s-3.429,0.029-4.625,1.125c-1.369,1.255-3.938,3.382-4.5,6.875c-0.4,2.486,0.25,5.875,2.125,10.25s3.25,4.25,4.5,6.375    s7.111,8.625,8.806,10.375S-487,357-485.75,357.5s5.285,2.736,8.75,3.25c3.375,0.5,6.25,0.125,9.375-2.375s3.544-4.119,3.75-6    c0.15-1.375,0.375-2.25-0.875-2.875c-1.561-0.78-3.375-0.75-4.375-1.25s-4-3.25-4-3.25s-1.75-1.25-3.375,0.875s-3,3.25-3,3.25    s-0.625,2-2.875,1.375s-6.75-5-6.75-5s-3.625-3.375-4.625-4.5s-2.75-4.125-2.75-4.125s-1.333-1.866,0.125-3.5    S-495.625,332.625-495.625,332.625z" fill="#FFFFFF"/></g><path d="M-385,305l-14,13c0,0-1.833,2.667,0,5s3.833,0.5,5.5,0s2.667-2.167,5.5-1.667s2.499,1.501,3.833,4.834   s6.167,11.166,6.333,17.499c0.083,3.161,5.333,17.668,6.5,20.834s3.667,10.166,7.167,14.666s12,6.075,16.333,5.834   s9.833-4.166,20.5-15.999c11.837-13.131,14.833-23.399,17.667-29.732S-299,317.833-299,311.833s-2.833-10.999-7.833-13.666   s-13.5-3.166-19,0S-336.333,304.833-339,310c-2.059,3.988-3.833,10-3.833,10s5.666-4,11.499-1.333   c5.434,2.484,2.835,9.5,1.501,12.833s-6.917,12.431-9.5,16.167c-1.747,2.527-4.167,4.833-5.667,4.833s-2.504,1.834-5.004-6.166   s-5.183-20.705-6.663-25.333c-1.333-4.166-1.322-14.264-3.666-18.334c-1.848-3.209-4.5-6.691-9.834-5.834   C-375.796,297.738-385,305-385,305z" fill="#FFFFFF"/><path d="M-232.223,323.335c-4.137-0.175-10.007,0.879-13.262,7.906s-1.787,16.866,1.169,19.326   c2.955,2.459,10.6,8.784,19.955,4.567c9.354-4.217,10.078-12.649,10.067-18.271c-0.01-5.622-5.165-8.786-7.331-10.191   C-223.79,325.268-228.086,323.51-232.223,323.335z" fill="#FFFFFF"/><path d="M-191.42,323.335c-4.137-0.175-10.007,0.879-13.262,7.906c-3.256,7.027-1.787,16.866,1.168,19.326   c2.956,2.459,10.601,8.784,19.955,4.567c9.355-4.217,10.078-12.649,10.068-18.271c-0.011-5.622-5.166-8.786-7.332-10.191   C-182.988,325.268-187.284,323.51-191.42,323.335z" fill="#FFFFFF"/><g><path d="M-101,330.5c0,0-1.75-5,4.25-4.25s13.25,3.75,18.25,7s12.5,12.5,14.75,18.5s2.25,9.5,2.25,11.25    s0,4-2.25,4s-7.5,0-7.5,0s-2.742,0.375-2.684-3s-1.191-10.25-4.066-13.75s-5.875-9.125-10.125-10.25s-8-1.625-10.125-1.75    s-3.1-0.625-2.987-2.625S-101,330.5-101,330.5z" fill="#FFFFFF"/><path d="M-101.246,308.875c0,0-0.629-3.5,13.371-2c6.013,0.645,17.25,7.094,22.25,10.344    s15.414,14.908,17.664,20.908s4.551,11.277,5.336,14.123c0.466,1.687,1.875,14.763-0.375,14.763s-8.5,0-8.5,0    s-1.75-1.263-2.25-7.263c-0.28-3.364-1.898-11.879-4.25-15.75c-2.75-4.528-9.741-12.789-14.375-16.375    c-3.477-2.69-11.985-6.808-15.89-8.217c-2.002-0.723-13.094-1.283-12.981-3.283S-101.246,308.875-101.246,308.875z" fill="#FFFFFF"/><path d="M-98.125,351.875c0,0,0.875-2.625,4.875-2.125s5.125,0.875,6.875,3.25s1,5,1,6.25s-0.875,3.625-2.25,4.75    s-1.59,1.875-4.045,2s-5.33,0.125-7.08-2.25s-2.75-3.75-2.5-6.875S-98.125,351.875-98.125,351.875z" fill="#FFFFFF"/></g><path d="M29.08,347.455c0.517,8.535,8.017,17.845,16.294,21.983c8.275,4.139,17.07,7.501,27.674,3.622   c10.604-3.88,18.364-8.277,23.536-21.209s-2.07-32.072-6.726-36.728S69.17,300.9,54.942,305.297   c-14.224,4.396-19.655,8.794-23.534,17.846C27.528,332.194,28.562,338.92,29.08,347.455z" fill="#FFFFFF"/><path d="M34.771,341.005c0,0,0,12.94,7.188,19.268c7.19,6.327,16.682,8.916,25.31,7.766   c8.627-1.151,20.417-8.055,24.157-18.981c3.738-10.927-0.864-24.159-6.041-28.759s-14.954-11.792-26.169-10.353   c-11.218,1.438-15.53,7.189-20.131,12.366C34.482,327.487,34.771,341.005,34.771,341.005z" fill="#6D6E71"/><path d="M53.334,309.334c0,0,17.001,19.667,20.667,34s5.333,23.679,5.333,23.679l-6,2.988   c0,0-2.333-22.335-7-30.001s-18-27.333-18-27.333L53.334,309.334z" fill="#FFFFFF"/><path d="M32.236,333.001c0,0,23.765,0.333,31.598-3.667s19.833-14.667,19.833-14.667l4.334,5   c0,0-14.075,10.684-16.334,11.667s-22.666,7.686-27.333,7.843s-14,0.491-14,0.491L32.236,333.001z" fill="#FFFFFF"/><path d="M38.334,362.001c0,0,4.667-10.482,12-15.408s17.667-10.08,28-9.836s16.667,2.42,16.667,2.42v5.157   c0,0-10.332-2.519-14.666-2.426s-13.668,1.943-19.668,4.685s-17.332,18.49-17.666,19.449s-4.667-2.708-4.667-2.708" fill="#FFFFFF"/></g></svg>